# Blender v2.80 (sub 40) OBJ File: 'StoneWallNext.blend'
# www.blender.org
mtllib StoneWallNext4.mtl
o Wall_Center_Plane.001
v 0.200000 0.100000 0.200583
v 2.000000 0.100000 0.200583
v 0.200000 2.000000 0.300078
v 2.000000 2.000000 0.300078
v 0.200000 1.800000 0.200584
v 0.200000 1.600000 0.200584
v 0.200000 1.400000 0.200584
v 0.200000 1.200000 0.200584
v 0.200000 1.000000 0.200584
v 0.200000 0.800000 0.200584
v 0.200000 0.600000 0.200584
v 0.200000 0.400000 0.200583
v 0.200000 0.200000 0.200583
v 2.000000 0.200000 0.200583
v 2.000000 0.400000 0.200583
v 2.000000 0.600000 0.200584
v 2.000000 0.800000 0.200584
v 2.000000 1.000000 0.200584
v 2.000000 1.200000 0.200584
v 2.000000 1.400000 0.200584
v 2.000000 1.600000 0.200584
v 2.000000 1.800000 0.200584
v 0.000000 2.000000 0.300078
v 0.000000 1.800000 0.197856
v -0.000000 1.600000 0.200584
v -0.000000 1.400000 0.200584
v -0.000000 1.200000 0.200584
v -0.000000 1.000000 0.200584
v -0.000000 0.800000 0.200584
v -0.000000 0.600000 0.200584
v -0.000000 0.400000 0.200583
v -0.000000 0.200000 0.200583
v 2.200000 0.100000 0.200583
v 2.200000 0.200000 0.200583
v 2.200000 0.400000 0.200583
v 2.200000 0.600000 0.200584
v 2.200000 0.800000 0.200584
v 2.200000 1.000000 0.200584
v 2.200000 1.200000 0.200584
v 2.200000 1.400000 0.200584
v 2.200000 1.600000 0.200584
v 2.200000 1.800000 0.200584
v 0.200000 0.100000 0.600583
v 2.000000 0.100000 0.600583
v 2.200000 0.100000 0.600583
v 0.200000 -0.000000 0.600583
v 2.000000 0.000000 0.600583
v 2.200000 0.000000 0.600583
v 2.000000 1.900000 0.300078
v 0.200000 1.900000 0.300078
v 0.000000 1.900000 0.300078
v 0.200000 2.000000 0.002222
v 2.000000 2.000000 0.002222
v 0.000000 2.000000 0.002222
vt 0.213977 0.842782
vt 0.860714 0.842782
vt 0.860714 0.878457
vt 0.213977 0.878457
vt 0.215249 0.235571
vt 0.795961 0.235571
vt 0.795961 0.267833
vt 0.215249 0.267832
vt 0.795961 0.332356
vt 0.215249 0.332356
vt 0.795961 0.396880
vt 0.215249 0.396880
vt 0.795961 0.461403
vt 0.215249 0.461403
vt 0.795961 0.525927
vt 0.215249 0.525927
vt 0.795961 0.590451
vt 0.215249 0.590451
vt 0.795961 0.654974
vt 0.215249 0.654974
vt 0.795961 0.719498
vt 0.215249 0.719498
vt 0.795961 0.784022
vt 0.215249 0.784022
vt 0.150725 0.332356
vt 0.150725 0.267832
vt 0.150725 0.461403
vt 0.150725 0.396880
vt 0.150725 0.590451
vt 0.150725 0.525927
vt 0.150725 0.719498
vt 0.150725 0.654974
vt 0.147216 0.878457
vt 0.147216 0.842782
vt 0.860485 0.719498
vt 0.860485 0.784022
vt 0.860485 0.590451
vt 0.860485 0.654974
vt 0.860485 0.461403
vt 0.860485 0.525927
vt 0.860485 0.332356
vt 0.860485 0.396880
vt 0.860485 0.235571
vt 0.860485 0.267832
vt 0.861767 0.222950
vt 0.790694 0.222950
vt 0.790694 0.080805
vt 0.861767 0.080805
vt 0.151040 0.222950
vt 0.151040 0.080805
vt 0.861612 0.067926
vt 0.790539 0.067923
vt 0.790541 0.032386
vt 0.861614 0.032390
vt 0.150885 0.067889
vt 0.150887 0.032352
vt 0.213977 0.792112
vt 0.147213 0.792112
vt 0.860714 0.792112
vt 0.146276 0.889639
vt 0.213707 0.889639
vt 0.213707 0.995486
vt 0.146276 0.995486
vt 0.862103 0.889639
vt 0.862103 0.995486
vn 0.0000 0.0000 1.0000
vn 0.0000 1.0000 0.0000
vn -0.0048 -0.7101 0.7041
vn 0.0000 -0.7053 0.7089
usemtl Material.001
s off
f 50/1/1 49/2/1 4/3/1 3/4/1
f 1/5/1 2/6/1 14/7/1 13/8/1
f 13/8/1 14/7/1 15/9/1 12/10/1
f 12/10/1 15/9/1 16/11/1 11/12/1
f 11/12/1 16/11/1 17/13/1 10/14/1
f 10/14/1 17/13/1 18/15/1 9/16/1
f 9/16/1 18/15/1 19/17/1 8/18/1
f 8/18/1 19/17/1 20/19/1 7/20/1
f 7/20/1 20/19/1 21/21/1 6/22/1
f 6/22/1 21/21/1 22/23/1 5/24/1
f 13/8/1 12/10/1 31/25/1 32/26/1
f 11/12/1 10/14/1 29/27/1 30/28/1
f 9/16/1 8/18/1 27/29/1 28/30/1
f 7/20/1 6/22/1 25/31/1 26/32/1
f 50/1/1 3/4/1 23/33/1 51/34/1
f 22/23/1 21/21/1 41/35/1 42/36/1
f 20/19/1 19/17/1 39/37/1 40/38/1
f 18/15/1 17/13/1 37/39/1 38/40/1
f 16/11/1 15/9/1 35/41/1 36/42/1
f 14/7/1 2/6/1 33/43/1 34/44/1
f 33/45/2 2/46/2 44/47/2 45/48/2
f 2/46/2 1/49/2 43/50/2 44/47/2
f 45/51/1 44/52/1 47/53/1 48/54/1
f 44/52/1 43/55/1 46/56/1 47/53/1
f 5/57/3 50/1/3 51/34/3 24/58/3
f 5/57/4 22/59/4 49/2/4 50/1/4
f 23/60/2 3/61/2 52/62/2 54/63/2
f 3/61/2 4/64/2 53/65/2 52/62/2
o Floor_Corner_Left_-_Right_Plane.007
v -0.001000 0.001000 2.000000
v 1.999000 0.001000 2.000000
v -0.001000 0.001000 0.600000
v 1.999000 0.001000 0.600000
vt 0.699966 0.999916
vt 0.000084 0.000084
vt 0.699966 0.000084
vt 0.000084 0.999916
vn 0.0000 1.0000 0.0000
usemtl Floor_Corner_Left_-_Right
s off
f 56/66/5 57/67/5 55/68/5
f 56/66/5 58/69/5 57/67/5
o Floor_Corner__Plane.010
v 1.999000 0.000000 2.000000
v 3.399000 0.000000 2.000000
v 1.999000 0.000000 0.600000
v 3.399000 0.000000 0.600000
vt 1.000000 0.000000
vt 0.000000 1.000000
vt 0.000000 0.000000
vt 1.000000 1.000000
vn 0.0000 1.0000 0.0000
usemtl Floor_Corner
s off
f 60/70/6 61/71/6 59/72/6
f 60/70/6 62/73/6 61/71/6
o Wall_Corner_Plane.013
v 3.399949 0.100000 0.601236
v 3.800049 0.100000 2.000000
v 3.299949 2.000000 0.701236
v 3.700049 2.000000 2.000000
v 3.800049 0.100000 0.601236
v 1.999989 2.000000 0.301236
v 3.399949 1.800000 0.601236
v 3.399949 1.600000 0.601236
v 3.399949 1.400000 0.601236
v 3.399949 1.200000 0.601236
v 3.399949 1.000000 0.601236
v 3.399949 0.800000 0.601236
v 3.399949 0.600000 0.601236
v 3.399949 0.400000 0.601236
v 3.399949 0.200000 0.601236
v 3.800049 0.200000 2.000000
v 3.800049 0.400000 2.000000
v 3.800049 0.600000 2.000000
v 3.800049 0.800000 2.000000
v 3.800049 1.000000 2.000000
v 3.800049 1.200000 2.000667
v 3.800049 1.400000 2.000000
v 3.800049 1.600000 2.000000
v 3.800049 1.800000 2.000000
v 1.999989 1.800000 0.201236
v 1.999989 1.600000 0.201236
v 1.999989 1.400000 0.201236
v 1.999989 1.200000 0.201236
v 1.999989 1.000000 0.201236
v 1.999989 0.800000 0.201236
v 1.999989 0.600000 0.201236
v 1.999989 0.400000 0.201236
v 1.999989 0.200000 0.201236
v 3.800049 0.100000 2.200000
v 3.800049 0.200000 2.200000
v 3.800049 0.400000 2.200000
v 3.800049 0.600000 2.200000
v 3.800049 0.800000 2.200000
v 3.800049 1.000000 2.200000
v 3.800049 1.200000 2.200667
v 3.800049 1.400000 2.200667
v 3.800301 1.600000 2.200000
v 3.800301 1.800000 2.200000
v 2.199989 0.100000 0.201236
v 2.199989 2.000000 0.301236
v 2.199989 0.200000 0.201236
v 2.199989 0.400000 0.201236
v 2.199989 0.600000 0.201236
v 2.199989 0.800000 0.201236
v 2.199989 1.000000 0.201236
v 2.199989 1.200000 0.201236
v 2.199989 1.400000 0.201236
v 2.199989 1.600000 0.201236
v 2.199989 1.800000 0.201236
v 3.700049 2.000000 0.701236
v 3.800049 0.200000 0.601236
v 3.800049 0.400000 0.601236
v 3.800049 0.600000 0.601236
v 3.800049 0.800000 0.601236
v 3.800049 1.000000 0.601236
v 3.800049 1.200000 0.601236
v 3.800049 1.400000 0.601236
v 3.800049 1.600000 0.601236
v 3.800049 1.800000 0.601236
v 3.399949 0.100000 0.201236
v 3.299949 2.000000 0.301236
v 3.399949 0.200000 0.201236
v 3.399949 0.400000 0.201236
v 3.399949 0.600000 0.201236
v 3.399949 0.800000 0.201236
v 3.399949 1.000000 0.201236
v 3.399949 1.200000 0.201236
v 3.399949 1.400000 0.201236
v 3.399949 1.600000 0.201236
v 3.399949 1.800000 0.201236
v 3.700049 1.900000 2.000000
v 3.299949 1.900000 0.701236
v 1.999989 1.900000 0.301236
v 2.199989 1.900000 0.301236
v 3.700049 1.900000 0.701236
v 3.299949 1.900000 0.301236
v 3.399949 0.100000 2.000000
v 3.399949 0.100000 0.601236
v 3.399949 0.100000 2.200000
v 3.399949 -0.000000 2.000000
v 3.399949 -0.000000 0.601236
v 3.399949 -0.000000 2.200000
v 2.199989 0.100000 0.601236
v 2.199989 -0.000000 0.601236
v 3.999749 2.000000 2.000000
v 3.999749 2.000000 0.701236
v 1.999989 2.000000 0.001236
v 2.199989 2.000000 0.001236
v 3.299949 2.000000 0.001236
v 3.700049 2.000000 0.301236
v 3.999749 2.000000 0.301236
v 3.700049 2.000000 0.001236
v 3.999749 2.000000 0.001236
vt 0.493992 0.691878
vt 0.871631 0.691103
vt 0.871631 0.719643
vt 0.493992 0.720418
vt 0.080838 0.940971
vt 0.080537 0.970040
vt 0.022398 0.969438
vt 0.022699 0.940369
vt 0.121757 0.257556
vt 0.228350 0.257556
vt 0.228350 0.325467
vt 0.121757 0.325467
vt 0.294497 0.049671
vt 0.294497 0.119494
vt 0.249357 0.119494
vt 0.249507 0.049671
vt 0.228350 0.393378
vt 0.121757 0.393378
vt 0.294347 0.187579
vt 0.294497 0.255557
vt 0.249507 0.255557
vt 0.249357 0.187579
vt 0.228350 0.461289
vt 0.121757 0.461289
vt 0.294497 0.323534
vt 0.294497 0.391511
vt 0.249507 0.391511
vt 0.249507 0.323534
vt 0.228350 0.529200
vt 0.121757 0.529200
vt 0.294497 0.458915
vt 0.294497 0.526893
vt 0.249507 0.526893
vt 0.249507 0.458915
vt 0.228350 0.597111
vt 0.121757 0.597111
vt 0.629076 0.017581
vt 0.943724 0.017580
vt 0.943724 0.051569
vt 0.629076 0.051569
vt 0.943724 0.119546
vt 0.629076 0.119546
vt 0.943724 0.187524
vt 0.629076 0.187524
vt 0.943724 0.255501
vt 0.629076 0.255501
vt 0.943724 0.323479
vt 0.629076 0.323479
vt 0.943874 0.391456
vt 0.629076 0.391456
vt 0.943724 0.459433
vt 0.629076 0.459433
vt 0.943724 0.527411
vt 0.629076 0.527411
vt 0.943724 0.595388
vt 0.629076 0.595388
vt 0.988714 0.527411
vt 0.988714 0.595388
vt 0.988864 0.391456
vt 0.988864 0.459433
vt 0.988714 0.255501
vt 0.988714 0.323478
vt 0.988714 0.119546
vt 0.988714 0.187524
vt 0.988714 0.017580
vt 0.988714 0.051569
vt 0.609145 0.526892
vt 0.609145 0.595262
vt 0.294497 0.595262
vt 0.609145 0.458915
vt 0.609145 0.391511
vt 0.609145 0.323534
vt 0.609145 0.255557
vt 0.609145 0.187579
vt 0.609145 0.119494
vt 0.609145 0.049671
vt 0.609145 0.017842
vt 0.295394 0.016780
vt 0.400589 0.944284
vt 0.400287 0.973353
vt 0.121757 0.189645
vt 0.228350 0.189645
vt 0.121757 0.121733
vt 0.228350 0.121733
vt 0.121757 0.053822
vt 0.228350 0.053822
vt 0.121757 0.019867
vt 0.228350 0.019867
vt 0.251863 0.690694
vt 0.376340 0.688968
vt 0.376340 0.720515
vt 0.251863 0.720706
vt 0.125642 0.720516
vt 0.125642 0.690923
vt 0.015191 0.053822
vt 0.015191 0.019867
vt 0.015191 0.121733
vt 0.015191 0.189645
vt 0.015191 0.257555
vt 0.015191 0.325467
vt 0.015191 0.393378
vt 0.015191 0.461289
vt 0.015191 0.529200
vt 0.015191 0.597111
vt 0.251863 0.658191
vt 0.125642 0.659398
vt 0.376340 0.658422
vt 0.430084 0.903475
vt 0.081264 0.899861
vt 0.023125 0.899258
vt 0.465452 0.651517
vt 0.871631 0.650742
vt 0.698245 0.867138
vt 0.656592 0.867138
vt 0.656592 0.783810
vt 0.698245 0.783810
vt 0.365276 0.867138
vt 0.365276 0.783810
vt 0.024164 0.748600
vt 0.065817 0.748600
vt 0.065817 0.769426
vt 0.024164 0.769426
vt 0.357132 0.748600
vt 0.357132 0.769427
vt 0.356989 0.867216
vt 0.024020 0.867216
vt 0.024020 0.783909
vt 0.356989 0.783909
vt 0.698440 0.748600
vt 0.698440 0.769427
vt 0.937229 0.856907
vt 0.937237 0.602639
vt 0.995912 0.602641
vt 0.995903 0.856909
vt 0.643548 0.935208
vt 0.858895 0.935215
vt 0.858893 0.993949
vt 0.643546 0.993941
vt 0.604393 0.935207
vt 0.604391 0.993940
vt 0.937226 0.935218
vt 0.858898 0.856905
vt 0.995900 0.935220
vt 0.937224 0.993951
vt 0.995898 0.993953
vn -1.0000 0.0000 0.0000
vn 0.0000 0.0000 1.0000
vn -1.0000 0.0000 0.0013
vn -0.7071 -0.7071 0.0000
vn -0.0000 -0.7071 0.7071
vn 0.0000 1.0000 0.0000
usemtl Material.003
s off
f 142/74/7 138/75/7 66/76/7 117/77/7
f 141/78/8 107/79/8 68/80/8 140/81/8
f 74/82/8 121/83/8 122/84/8 73/85/8
f 108/86/8 109/87/8 94/88/8 95/89/8
f 73/85/8 122/84/8 123/90/8 72/91/8
f 110/92/8 111/93/8 92/94/8 93/95/8
f 72/91/8 123/90/8 124/96/8 71/97/8
f 112/98/8 113/99/8 90/100/8 91/101/8
f 71/97/8 124/96/8 125/102/8 70/103/8
f 114/104/8 115/105/8 88/106/8 89/107/8
f 70/103/8 125/102/8 126/108/8 69/109/8
f 67/110/7 64/111/7 78/112/7 118/113/7
f 118/113/7 78/112/7 79/114/7 119/115/7
f 119/115/7 79/114/7 80/116/7 120/117/7
f 120/117/7 80/116/7 81/118/7 121/119/7
f 121/119/7 81/118/7 82/120/7 122/121/7
f 122/121/7 82/120/7 83/122/7 123/123/7
f 123/123/7 83/122/7 84/124/7 124/125/7
f 124/125/7 84/124/7 85/126/7 125/127/7
f 125/127/7 85/126/7 86/128/7 126/129/7
f 86/128/9 85/126/9 104/130/9 105/131/9
f 84/124/7 83/122/7 102/132/7 103/133/7
f 82/120/7 81/118/7 100/134/7 101/135/7
f 80/116/7 79/114/7 98/136/7 99/137/7
f 78/112/7 64/111/7 96/138/7 97/139/7
f 136/140/8 137/141/8 116/142/8 115/105/8
f 135/143/8 136/140/8 115/105/8 114/104/8
f 134/144/8 135/143/8 114/104/8 113/99/8
f 133/145/8 134/144/8 113/99/8 112/98/8
f 132/146/8 133/145/8 112/98/8 111/93/8
f 131/147/8 132/146/8 111/93/8 110/92/8
f 130/148/8 131/147/8 110/92/8 109/87/8
f 129/149/8 130/148/8 109/87/8 108/86/8
f 127/150/8 129/149/8 108/86/8 106/151/8
f 143/152/8 128/153/8 107/79/8 141/78/8
f 75/154/8 120/155/8 121/83/8 74/82/8
f 76/156/8 119/157/8 120/155/8 75/154/8
f 77/158/8 118/159/8 119/157/8 76/156/8
f 63/160/8 67/161/8 118/159/8 77/158/8
f 139/162/8 142/163/8 117/164/8 65/165/8
f 139/162/7 65/165/7 128/166/7 143/167/7
f 63/160/7 77/158/7 129/168/7 127/169/7
f 77/158/7 76/156/7 130/170/7 129/168/7
f 76/156/7 75/154/7 131/171/7 130/170/7
f 75/154/7 74/82/7 132/172/7 131/171/7
f 74/82/7 73/85/7 133/173/7 132/172/7
f 73/85/7 72/91/7 134/174/7 133/173/7
f 72/91/7 71/97/7 135/175/7 134/174/7
f 71/97/7 70/103/7 136/176/7 135/175/7
f 70/103/7 69/109/7 137/177/7 136/176/7
f 69/178/10 139/162/10 143/167/10 137/179/10
f 69/178/11 126/180/11 142/163/11 139/162/11
f 137/181/11 143/152/11 141/78/11 116/182/11
f 116/182/11 141/78/11 140/81/11 87/183/11
f 126/184/10 86/185/10 138/75/10 142/74/10
f 96/186/12 64/187/12 144/188/12 146/189/12
f 64/187/12 67/190/12 145/191/12 144/188/12
f 146/192/7 144/193/7 147/194/7 149/195/7
f 144/193/7 145/196/7 148/197/7 147/194/7
f 127/198/12 106/199/12 150/200/12 145/201/12
f 145/196/8 150/202/8 151/203/8 148/197/8
f 117/204/12 66/205/12 152/206/12 153/207/12
f 107/208/12 128/209/12 156/210/12 155/211/12
f 68/212/12 107/208/12 155/211/12 154/213/12
f 157/214/12 128/209/12 65/215/12 117/204/12
f 158/216/12 157/214/12 117/204/12 153/207/12
f 156/210/12 128/209/12 157/214/12 159/217/12
f 158/216/12 160/218/12 159/217/12 157/214/12
o Floor_Center_Plane.018
v -0.001000 0.001000 4.000000
v 1.999000 0.001000 4.000000
v -0.001000 0.001000 2.000000
v 1.999000 0.001000 2.000000
vt 1.000000 0.000000
vt 0.000000 1.000000
vt 0.000000 0.000000
vt 1.000000 1.000000
vn 0.0000 1.0000 0.0000
usemtl Material.002
s off
f 162/219/13 163/220/13 161/221/13
f 162/219/13 164/222/13 163/220/13
o Wall_Center.001_Plane.022
v 3.799407 0.100000 2.189989
v 3.799311 0.100000 3.989989
v 3.699912 2.000000 2.189984
v 3.699816 2.000000 3.989984
v 3.799406 1.800000 2.189989
v 3.799407 1.600000 2.189989
v 3.799407 1.400000 2.189989
v 3.799407 1.200000 2.189989
v 3.799407 1.000000 2.189989
v 3.799407 0.800000 2.189989
v 3.799407 0.600000 2.189989
v 3.799407 0.400000 2.189989
v 3.799407 0.200000 2.189989
v 3.799311 0.200000 3.989989
v 3.799311 0.400000 3.989989
v 3.799311 0.600000 3.989989
v 3.799311 0.800000 3.989989
v 3.799311 1.000000 3.989989
v 3.799311 1.200000 3.989989
v 3.799311 1.400000 3.989989
v 3.799311 1.600000 3.989989
v 3.799311 1.800000 3.989989
v 3.699922 2.000000 1.989984
v 3.802144 1.800000 1.989990
v 3.799417 1.600000 1.989989
v 3.799417 1.400000 1.989989
v 3.799417 1.200000 1.989989
v 3.799417 1.000000 1.989989
v 3.799417 0.800000 1.989989
v 3.799417 0.600000 1.989989
v 3.799417 0.400000 1.989989
v 3.799417 0.200000 1.989989
v 3.799301 0.100000 4.189989
v 3.799301 0.200000 4.189989
v 3.799301 0.400000 4.189989
v 3.799301 0.600000 4.189989
v 3.799301 0.800000 4.189989
v 3.799301 1.000000 4.189989
v 3.799301 1.200000 4.189989
v 3.799301 1.400000 4.189989
v 3.799301 1.600000 4.189989
v 3.799301 1.800000 4.189989
v 3.399407 0.100000 2.189968
v 3.399311 0.100000 3.989968
v 3.399301 0.100000 4.189968
v 3.399407 -0.000000 2.189968
v 3.399311 0.000000 3.989968
v 3.399301 0.000000 4.189968
v 3.699816 1.900000 3.989984
v 3.699912 1.900000 2.189984
v 3.699922 1.900000 1.989984
v 3.997768 2.000000 2.190000
v 3.997673 2.000000 3.990000
v 3.997778 2.000000 1.990000
vt 0.213977 0.842782
vt 0.860714 0.842782
vt 0.860714 0.878457
vt 0.213977 0.878457
vt 0.215249 0.235571
vt 0.795961 0.235571
vt 0.795961 0.267833
vt 0.215249 0.267832
vt 0.795961 0.332356
vt 0.215249 0.332356
vt 0.795961 0.396880
vt 0.215249 0.396880
vt 0.795961 0.461403
vt 0.215249 0.461403
vt 0.795961 0.525927
vt 0.215249 0.525927
vt 0.795961 0.590451
vt 0.215249 0.590451
vt 0.795961 0.654974
vt 0.215249 0.654974
vt 0.795961 0.719498
vt 0.215249 0.719498
vt 0.795961 0.784022
vt 0.215249 0.784022
vt 0.150725 0.332356
vt 0.150725 0.267832
vt 0.150725 0.461403
vt 0.150725 0.396880
vt 0.150725 0.590451
vt 0.150725 0.525927
vt 0.150725 0.719498
vt 0.150725 0.654974
vt 0.147216 0.878457
vt 0.147216 0.842782
vt 0.860485 0.719498
vt 0.860485 0.784022
vt 0.860485 0.590451
vt 0.860485 0.654974
vt 0.860485 0.461403
vt 0.860485 0.525927
vt 0.860485 0.332356
vt 0.860485 0.396880
vt 0.860485 0.235571
vt 0.860485 0.267832
vt 0.861767 0.222950
vt 0.790694 0.222950
vt 0.790694 0.080805
vt 0.861767 0.080805
vt 0.151040 0.222950
vt 0.151040 0.080805
vt 0.861612 0.067926
vt 0.790539 0.067923
vt 0.790541 0.032386
vt 0.861614 0.032390
vt 0.150885 0.067889
vt 0.150887 0.032352
vt 0.213977 0.792112
vt 0.147213 0.792112
vt 0.860714 0.792112
vt 0.146276 0.889639
vt 0.213707 0.889639
vt 0.213707 0.995486
vt 0.146276 0.995486
vt 0.862103 0.889639
vt 0.862103 0.995486
vn -1.0000 0.0000 -0.0001
vn -0.0000 1.0000 -0.0000
vn -0.7041 -0.7101 -0.0048
vn -0.7089 -0.7053 -0.0000
usemtl Material.001
s off
f 214/223/14 213/224/14 168/225/14 167/226/14
f 165/227/14 166/228/14 178/229/14 177/230/14
f 177/230/14 178/229/14 179/231/14 176/232/14
f 176/232/14 179/231/14 180/233/14 175/234/14
f 175/234/14 180/233/14 181/235/14 174/236/14
f 174/236/14 181/235/14 182/237/14 173/238/14
f 173/238/14 182/237/14 183/239/14 172/240/14
f 172/240/14 183/239/14 184/241/14 171/242/14
f 171/242/14 184/241/14 185/243/14 170/244/14
f 170/244/14 185/243/14 186/245/14 169/246/14
f 177/230/14 176/232/14 195/247/14 196/248/14
f 175/234/14 174/236/14 193/249/14 194/250/14
f 173/238/14 172/240/14 191/251/14 192/252/14
f 171/242/14 170/244/14 189/253/14 190/254/14
f 214/223/14 167/226/14 187/255/14 215/256/14
f 186/245/14 185/243/14 205/257/14 206/258/14
f 184/241/14 183/239/14 203/259/14 204/260/14
f 182/237/14 181/235/14 201/261/14 202/262/14
f 180/233/14 179/231/14 199/263/14 200/264/14
f 178/229/14 166/228/14 197/265/14 198/266/14
f 197/267/15 166/268/15 208/269/15 209/270/15
f 166/268/15 165/271/15 207/272/15 208/269/15
f 209/273/14 208/274/14 211/275/14 212/276/14
f 208/274/14 207/277/14 210/278/14 211/275/14
f 169/279/16 214/223/16 215/256/16 188/280/16
f 169/279/17 186/281/17 213/224/17 214/223/17
f 187/282/15 167/283/15 216/284/15 218/285/15
f 167/283/15 168/286/15 217/287/15 216/284/15
o Floor_Corner_Left_-_Right.001_Plane.023
v 3.399000 0.001000 4.000000
v 3.399000 0.001000 2.000000
v 1.999000 0.001000 4.000000
v 1.999000 0.001000 2.000000
vt 0.699966 0.999916
vt 0.000084 0.000084
vt 0.699966 0.000084
vt 0.000084 0.999916
vn 0.0000 1.0000 0.0000
usemtl Floor_Corner_Left_-_Right
s off
f 220/288/18 221/289/18 219/290/18
f 220/288/18 222/291/18 221/289/18
